%TF.GenerationSoftware,KiCad,Pcbnew,(7.0.0)*%
%TF.CreationDate,2023-04-19T09:29:54-05:00*%
%TF.ProjectId,Pixel.Cookie,50697865-6c2e-4436-9f6f-6b69652e6b69,rev?*%
%TF.SameCoordinates,Original*%
%TF.FileFunction,Copper,L2,Bot*%
%TF.FilePolarity,Positive*%
%FSLAX46Y46*%
G04 Gerber Fmt 4.6, Leading zero omitted, Abs format (unit mm)*
G04 Created by KiCad (PCBNEW (7.0.0)) date 2023-04-19 09:29:54*
%MOMM*%
%LPD*%
G01*
G04 APERTURE LIST*
%TA.AperFunction,ViaPad*%
%ADD10C,0.250000*%
%TD*%
%TA.AperFunction,Conductor*%
%ADD11C,0.250000*%
%TD*%
G04 APERTURE END LIST*
D10*
%TO.N,*%
X23380000Y-30084000D03*
X27702000Y-13795000D03*
X25254000Y-15295000D03*
X26030000Y-13815000D03*
X25380000Y-26986000D03*
X22630000Y-31383000D03*
X19660000Y-13830000D03*
X15830000Y-14770000D03*
X22056000Y-15295000D03*
X24504000Y-13795000D03*
X21130000Y-25187000D03*
X19880000Y-26986000D03*
X22905000Y-13795000D03*
X20630000Y-28285000D03*
X30900000Y-13795000D03*
X22630000Y-27785000D03*
X24130000Y-25187000D03*
X25380000Y-29584000D03*
X21130000Y-31383000D03*
X29301000Y-13795000D03*
X28452000Y-15295000D03*
X18858000Y-15295000D03*
X24130000Y-31383000D03*
X23655000Y-15295000D03*
X30051000Y-15295000D03*
X31650000Y-15295000D03*
X21880000Y-26486000D03*
X21880000Y-30084000D03*
X26785000Y-15330000D03*
X22630000Y-25187000D03*
X19880000Y-29584000D03*
X21235000Y-13815000D03*
X24630000Y-28285000D03*
X18630000Y-28285000D03*
X23380000Y-26486000D03*
X20390000Y-15335000D03*
%TD*%
D11*
%TO.N,*%
X25945000Y-18150000D02*
X26720000Y-17375000D01*
X28455000Y-15298000D02*
X28452000Y-15295000D01*
X26015000Y-32945000D02*
X30335000Y-28625000D01*
X25945000Y-27220000D02*
X25945000Y-18150000D01*
X29301000Y-17499000D02*
X29301000Y-13795000D01*
X25380000Y-29584000D02*
X25606000Y-29584000D01*
X22630000Y-17485000D02*
X23740000Y-16375000D01*
X25380000Y-26986000D02*
X25380000Y-17895000D01*
X24995000Y-29030000D02*
X26615000Y-27410000D01*
X27210000Y-27980000D02*
X27210000Y-18665000D01*
X18690000Y-16275000D02*
X19655000Y-15310000D01*
X19880000Y-29584000D02*
X19880000Y-28435000D01*
X24130000Y-18110000D02*
X25254000Y-16986000D01*
X27710000Y-17300000D02*
X27710000Y-13803000D01*
X23740000Y-16375000D02*
X23740000Y-15380000D01*
X18690000Y-26510000D02*
X18690000Y-16275000D01*
X23380000Y-26486000D02*
X23380000Y-17845000D01*
X21130000Y-31383000D02*
X21130000Y-31890000D01*
X19235000Y-16517000D02*
X20457000Y-15295000D01*
X25130000Y-32000000D02*
X28860000Y-28270000D01*
X27210000Y-18665000D02*
X28455000Y-17420000D01*
X15830000Y-25485000D02*
X18630000Y-28285000D01*
X26720000Y-15428000D02*
X26853000Y-15295000D01*
X23765000Y-32000000D02*
X25130000Y-32000000D01*
X22630000Y-26325000D02*
X21925000Y-25620000D01*
X19880000Y-26575000D02*
X19235000Y-25930000D01*
X19655000Y-13847000D02*
X19707000Y-13795000D01*
X19880000Y-26986000D02*
X19880000Y-26575000D01*
X23740000Y-15380000D02*
X23655000Y-15295000D01*
X28455000Y-17420000D02*
X28455000Y-15298000D01*
X23380000Y-30084000D02*
X23491000Y-30084000D01*
X27710000Y-13803000D02*
X27702000Y-13795000D01*
X21230000Y-15520000D02*
X21230000Y-13871000D01*
X26720000Y-17375000D02*
X26720000Y-15428000D01*
X30900000Y-17615000D02*
X30900000Y-13795000D01*
X24455000Y-13844000D02*
X24504000Y-13795000D01*
X25630000Y-32405000D02*
X29645000Y-28390000D01*
X21880000Y-31485000D02*
X22800000Y-32405000D01*
X31675000Y-15320000D02*
X31650000Y-15295000D01*
X18085000Y-16068000D02*
X18858000Y-15295000D01*
X22056000Y-15404000D02*
X22056000Y-15295000D01*
X18085000Y-26640000D02*
X18085000Y-16068000D01*
X27945000Y-28120000D02*
X27945000Y-18855000D01*
X19880000Y-28435000D02*
X18085000Y-26640000D01*
X23380000Y-17845000D02*
X24455000Y-16770000D01*
X26615000Y-18395000D02*
X27710000Y-17300000D01*
X28860000Y-18990000D02*
X30051000Y-17799000D01*
X25990000Y-13908000D02*
X26103000Y-13795000D01*
X22630000Y-27785000D02*
X22630000Y-26325000D01*
X20630000Y-28285000D02*
X20465000Y-28285000D01*
X31675000Y-17575000D02*
X31675000Y-15320000D01*
X24880000Y-28285000D02*
X25945000Y-27220000D01*
X28860000Y-28270000D02*
X28860000Y-18990000D01*
X22855000Y-13845000D02*
X22905000Y-13795000D01*
X20100000Y-16650000D02*
X21230000Y-15520000D01*
X26615000Y-27410000D02*
X26615000Y-18395000D01*
X24682000Y-31383000D02*
X27945000Y-28120000D01*
X25990000Y-17285000D02*
X25990000Y-13908000D01*
X21230000Y-13871000D02*
X21306000Y-13795000D01*
X25254000Y-16986000D02*
X25254000Y-15295000D01*
X30051000Y-17799000D02*
X30051000Y-15295000D01*
X21925000Y-25620000D02*
X21925000Y-16650000D01*
X30335000Y-28625000D02*
X30335000Y-18915000D01*
X21130000Y-31890000D02*
X22185000Y-32945000D01*
X29645000Y-18870000D02*
X30900000Y-17615000D01*
X23148000Y-31383000D02*
X23765000Y-32000000D01*
X15830000Y-14770000D02*
X15830000Y-25485000D01*
X20740000Y-16720000D02*
X22056000Y-15404000D01*
X20465000Y-28285000D02*
X18690000Y-26510000D01*
X22800000Y-32405000D02*
X25630000Y-32405000D01*
X24130000Y-31383000D02*
X24682000Y-31383000D01*
X20721000Y-26486000D02*
X20100000Y-25865000D01*
X20100000Y-25865000D02*
X20100000Y-16650000D01*
X30335000Y-18915000D02*
X31675000Y-17575000D01*
X21130000Y-24050000D02*
X20740000Y-23660000D01*
X20740000Y-23660000D02*
X20740000Y-16720000D01*
X22630000Y-25187000D02*
X22630000Y-17485000D01*
X24630000Y-28285000D02*
X24880000Y-28285000D01*
X19235000Y-25930000D02*
X19235000Y-16517000D01*
X22630000Y-31383000D02*
X23148000Y-31383000D01*
X22185000Y-32945000D02*
X26015000Y-32945000D01*
X24545000Y-29030000D02*
X24995000Y-29030000D01*
X25380000Y-17895000D02*
X25990000Y-17285000D01*
X24455000Y-16770000D02*
X24455000Y-13844000D01*
X23491000Y-30084000D02*
X24545000Y-29030000D01*
X19655000Y-15310000D02*
X19655000Y-13847000D01*
X21880000Y-30084000D02*
X21880000Y-31485000D01*
X25606000Y-29584000D02*
X27210000Y-27980000D01*
X24130000Y-25187000D02*
X24130000Y-18110000D01*
X21130000Y-25187000D02*
X21130000Y-24050000D01*
X27945000Y-18855000D02*
X29301000Y-17499000D01*
X21880000Y-26486000D02*
X20721000Y-26486000D01*
X21925000Y-16650000D02*
X22855000Y-15720000D01*
X22855000Y-15720000D02*
X22855000Y-13845000D01*
X29645000Y-28390000D02*
X29645000Y-18870000D01*
%TD*%
M02*
