M48
; DRILL file {KiCad (7.0.0)} date Wed Apr 19 09:29:57 2023
; FORMAT={-:-/ absolute / metric / decimal}
; #@! TF.CreationDate,2023-04-19T09:29:57-05:00
; #@! TF.GenerationSoftware,Kicad,Pcbnew,(7.0.0)
; #@! TF.FileFunction,Plated,1,2,PTH
FMAT,2
METRIC
; #@! TA.AperFunction,Plated,PTH,ViaDrill
T1C0.150
%
G90
G05
T1
X15.83Y-14.77
X18.63Y-28.285
X18.858Y-15.295
X19.66Y-13.83
X19.88Y-26.986
X19.88Y-29.584
X20.39Y-15.335
X20.63Y-28.285
X21.13Y-25.187
X21.13Y-31.383
X21.235Y-13.815
X21.88Y-26.486
X21.88Y-30.084
X22.056Y-15.295
X22.63Y-25.187
X22.63Y-27.785
X22.63Y-31.383
X22.905Y-13.795
X23.38Y-26.486
X23.38Y-30.084
X23.655Y-15.295
X24.13Y-25.187
X24.13Y-31.383
X24.504Y-13.795
X24.63Y-28.285
X25.254Y-15.295
X25.38Y-26.986
X25.38Y-29.584
X26.03Y-13.815
X26.785Y-15.33
X27.702Y-13.795
X28.452Y-15.295
X29.301Y-13.795
X30.051Y-15.295
X30.9Y-13.795
X31.65Y-15.295
T0
M30
